HIERARCHY
ROOT Hips
{
	OFFSET 0.000000 0.000000 0.000000
	CHANNELS 6 Xposition Yposition Zposition Xrotation Yrotation Zrotation
	JOINT LeftUpLeg_virtual
	{
		OFFSET 0.000000 0.000000 0.000000
		CHANNELS 3 Xrotation Yrotation Zrotation
		JOINT LeftUpLeg
		{
			OFFSET 13.026900 -6.336304 -1.092800
			CHANNELS 3 Xrotation Yrotation Zrotation
			JOINT LeftLeg
			{
				OFFSET 0.524474 -46.096886 9.782700
				CHANNELS 3 Xrotation Yrotation Zrotation
				JOINT LeftFoot
				{
					OFFSET -0.524474 -53.427422 -12.948200
					CHANNELS 3 Xrotation Yrotation Zrotation
					JOINT LeftToeBase
					{
						OFFSET 0.192200 -14.009700 16.364100
						CHANNELS 3 Xrotation Yrotation Zrotation
						JOINT LeftToe_End
						{
							OFFSET -1.784700 -0.561700 9.474800
							CHANNELS 3 Xrotation Yrotation Zrotation
							End Site
							{
								OFFSET 0 0 0
							}
						}
					}
				}
			}
		}
	}
	JOINT RightUpLeg_virtual
	{
		OFFSET 0.000000 0.000000 0.000000
		CHANNELS 3 Xrotation Yrotation Zrotation
		JOINT RightUpLeg
		{
			OFFSET -12.883000 -6.336304 -1.092800
			CHANNELS 3 Xrotation Yrotation Zrotation
			JOINT RightLeg
			{
				OFFSET -0.524587 -46.096825 9.782800
				CHANNELS 3 Xrotation Yrotation Zrotation
				JOINT RightFoot
				{
					OFFSET 0.524587 -53.427383 -12.948300
					CHANNELS 3 Xrotation Yrotation Zrotation
					JOINT RightToeBase
					{
						OFFSET -0.192200 -14.009700 16.364100
						CHANNELS 3 Xrotation Yrotation Zrotation
						JOINT RightToe_End
						{
							OFFSET 1.784700 -0.561700 9.474800
							CHANNELS 3 Xrotation Yrotation Zrotation
							End Site
							{
								OFFSET 0 0 0
							}
						}
					}
				}
			}
		}
	}
	JOINT Spine_virtual
	{
		OFFSET 0.000000 0.000000 0.000000
		CHANNELS 3 Xrotation Yrotation Zrotation
		JOINT Spine
		{
			OFFSET 0.072000 7.257294 -0.789700
			CHANNELS 3 Xrotation Yrotation Zrotation
			JOINT Spine1
			{
				OFFSET 0.000000 12.508769 -0.658067
				CHANNELS 3 Xrotation Yrotation Zrotation
				JOINT Spine1_split
				{
					OFFSET 0.000000 12.508769 -0.658067
					CHANNELS 3 Xrotation Yrotation Zrotation
					JOINT Spine2
					{
						OFFSET 0.000000 12.508769 -0.658067
						CHANNELS 3 Xrotation Yrotation Zrotation
						JOINT Neck_virtual
						{
							OFFSET 0.000000 0.000000 0.000000
							CHANNELS 3 Xrotation Yrotation Zrotation
							JOINT Neck
							{
								OFFSET 0.000000 14.033295 7.520400
								CHANNELS 3 Xrotation Yrotation Zrotation
								JOINT Head
								{
									OFFSET 0.000000 8.198502 5.703100
									CHANNELS 3 Xrotation Yrotation Zrotation
									JOINT HeadTop_End
									{
										OFFSET 0.000000 17.760803 13.332701
										CHANNELS 3 Xrotation Yrotation Zrotation
										End Site
										{
											OFFSET 0 0 0
										}
									}
								}
							}
						}
						JOINT LeftShoulder_virtual
						{
							OFFSET 0.000000 0.000000 0.000000
							CHANNELS 3 Xrotation Yrotation Zrotation
							JOINT LeftShoulder
							{
								OFFSET 6.292450 5.785301 -0.669000
								CHANNELS 3 Xrotation Yrotation Zrotation
								JOINT LeftShoulder_split
								{
									OFFSET 6.292450 5.785301 -0.669000
									CHANNELS 3 Xrotation Yrotation Zrotation
									JOINT LeftArm
									{
										OFFSET 13.907140 -6.093903 1.965100
										CHANNELS 3 Xrotation Yrotation Zrotation
										JOINT LeftForeArm
										{
											OFFSET 34.140198 0.000000 0.000000
											CHANNELS 3 Xrotation Yrotation Zrotation
											JOINT LeftHand
											{
												OFFSET 40.960209 0.000000 0.000000
												CHANNELS 3 Xrotation Yrotation Zrotation
												End Site
												{
													OFFSET 0 0 0
												}
											}
										}
									}
								}
							}
						}
						JOINT RightShoulder_virtual
						{
							OFFSET 0.000000 0.000000 0.000000
							CHANNELS 3 Xrotation Yrotation Zrotation
							JOINT RightShoulder
							{
								OFFSET -6.292450 5.785301 -0.669000
								CHANNELS 3 Xrotation Yrotation Zrotation
								JOINT RightShoulder_split
								{
									OFFSET -6.292450 5.785301 -0.669000
									CHANNELS 3 Xrotation Yrotation Zrotation
									JOINT RightArm
									{
										OFFSET -13.907140 -6.093903 1.965100
										CHANNELS 3 Xrotation Yrotation Zrotation
										JOINT RightForeArm
										{
											OFFSET -34.140198 0.000000 0.000000
											CHANNELS 3 Xrotation Yrotation Zrotation
											JOINT RightHand
											{
												OFFSET -40.960209 0.000000 0.000000
												CHANNELS 3 Xrotation Yrotation Zrotation
												End Site
												{
													OFFSET 0 0 0
												}
											}
										}
									}
								}
							}
						}
					}
				}
			}
		}
	}
}
MOTION
Frames: 8
Frame Time: 0.03333333
0.069509 138.507843 2.702084 0.000000 0.000000 0.000000 -87.452882 -5.060483 -1.901602 0.199340 22.331894 12.900200 -5.520749 5.322698 5.066765 22.296391 27.711432 -24.284058 -5.433582 -0.023753 0.686388 0.000000 0.000000 0.000000 -89.915957 -2.240930 -0.375812 0.457754 -20.771903 -10.897709 -1.312838 -2.545957 -5.422396 34.510405 -29.646559 30.075976 -13.693997 0.265895 -1.107207 0.000000 0.000000 0.000000 -87.877521 -6.455674 -4.101121 2.247369 -1.365653 0.979369 -2.616549 -1.271983 0.553594 1.166182 2.418115 -0.296153 0.000000 0.000000 0.000000 -2.405233 -1.699212 0.421910 -11.243570 -2.468521 -1.258870 15.148258 -0.194498 3.463377 0.000000 0.000000 0.000000 -0.512172 -1.629129 0.753108 0.742555 1.403521 -5.586186 -1.171926 0.720935 -2.754218 37.851040 -28.551547 -54.964274 -157.458086 -88.366494 -156.437136 0.000000 0.000000 0.000000 -0.434684 -1.242336 0.212279 0.587068 -2.631450 13.637858 2.641664 4.843576 -0.565660 28.275346 24.260955 47.410682 178.748236 78.942780 -179.829674 0.000000 0.000000 0.000000 
-0.135183 138.668716 3.361675 0.000000 0.000000 0.000000 -87.394347 -4.732247 -1.763162 -0.221219 22.473028 13.190587 -5.568516 5.384944 4.973058 22.448959 27.470210 -24.521472 -5.439361 -0.021490 0.672534 0.000000 0.000000 0.000000 -89.426335 -1.969767 -0.321324 0.558623 -20.171345 -10.884209 -1.445190 -2.612959 -5.410512 34.980349 -29.701276 30.204500 -13.716355 0.256635 -1.065535 0.000000 0.000000 0.000000 -87.687731 -6.455184 -4.268151 2.003366 -1.471514 0.988436 -2.707915 -1.331355 0.450734 0.957786 2.033029 -0.408978 0.000000 0.000000 0.000000 -2.536836 -1.724238 0.331492 -11.253436 -2.330893 -1.263993 15.322667 -0.334151 3.245256 0.000000 0.000000 0.000000 -0.506936 -1.682503 0.664615 0.776647 0.823940 -5.289938 -0.626410 0.566070 -2.394218 37.593259 -28.796829 -55.022716 -144.837262 -88.531928 -143.727616 0.000000 0.000000 0.000000 -0.489610 -1.271539 0.119743 0.620779 -3.000295 13.611120 2.484352 4.642956 0.328558 27.199775 25.036029 48.632210 -179.786767 79.740519 178.617944 0.000000 0.000000 0.000000 
-0.198696 138.866653 3.861656 0.000000 0.000000 0.000000 -87.207780 -4.748546 -1.884237 -0.521627 22.358266 13.513541 -5.472351 5.477405 4.895585 22.428632 27.270082 -24.428537 -5.391908 -0.008876 0.623025 0.000000 0.000000 0.000000 -88.824896 -1.903903 -0.424423 0.272938 -19.752866 -10.781257 -1.511961 -2.696335 -5.396074 35.663799 -29.668641 30.476806 -13.982592 0.288713 -1.094264 0.000000 0.000000 0.000000 -87.374416 -6.546515 -4.479323 1.791782 -1.553976 1.092663 -2.846091 -1.396294 0.262324 0.718453 1.697885 -0.452702 0.000000 0.000000 0.000000 -2.598580 -1.781557 0.184875 -11.335834 -2.298272 -1.118332 15.343217 -0.602555 3.166555 0.000000 0.000000 0.000000 -0.633324 -1.725842 0.496165 0.832319 -0.107798 -4.731382 -0.282455 1.095693 -2.501097 38.082328 -29.395293 -54.164677 -142.521118 -88.679433 -141.394628 0.000000 0.000000 0.000000 -0.591883 -1.312106 -0.021427 0.671695 -3.607774 13.552354 2.279868 4.322077 0.723518 23.998870 25.448452 52.002636 -178.703061 81.191722 177.421117 0.000000 0.000000 0.000000 
-0.113875 138.988922 4.159321 0.000000 0.000000 0.000000 -86.928951 -5.126761 -2.214408 -0.685786 21.871106 13.719990 -5.198276 5.499694 4.888129 22.223460 27.158796 -24.062966 -5.301756 0.010771 0.542912 0.000000 0.000000 0.000000 -88.306723 -2.069979 -0.592143 -0.407187 -19.563885 -10.677918 -1.504887 -2.808505 -5.411862 36.214240 -29.679928 30.675261 -14.261952 0.349689 -1.166352 0.000000 0.000000 0.000000 -87.000573 -6.732213 -4.644169 1.646388 -1.602406 1.225430 -2.996105 -1.434669 0.038555 0.449251 1.540603 -0.424081 0.000000 0.000000 0.000000 -2.580446 -1.838710 0.013555 -11.416140 -2.348796 -0.923740 15.271885 -0.944513 3.150282 0.000000 0.000000 0.000000 -0.879096 -1.742278 0.289699 0.903178 -1.214314 -4.127501 -0.205010 2.175959 -3.053925 39.076994 -30.067463 -52.648345 -148.884518 -88.870310 -147.790363 0.000000 0.000000 0.000000 -0.740687 -1.338618 -0.171844 0.764831 -4.326735 13.534486 2.159608 4.032769 0.501776 19.073247 25.027562 56.870788 -177.942479 83.336204 176.551934 0.000000 0.000000 0.000000 
0.136543 139.005493 4.290199 0.000000 0.000000 0.000000 -86.624059 -5.738276 -2.546512 -0.706265 21.030619 13.684329 -4.818529 5.367586 4.955983 21.971433 27.076485 -23.635310 -5.248735 0.033109 0.457862 0.000000 0.000000 0.000000 -87.915367 -2.441846 -0.703774 -1.397905 -19.507147 -10.709078 -1.401404 -2.959753 -5.472211 36.268830 -29.930159 30.544046 -14.192904 0.414603 -1.238469 0.000000 0.000000 0.000000 -86.602625 -6.965083 -4.667629 1.595956 -1.632850 1.288272 -3.100761 -1.407165 -0.152544 0.310401 1.411185 -0.441500 0.000000 0.000000 0.000000 -2.495512 -1.871000 -0.131833 -11.399199 -2.435039 -0.822688 15.266006 -1.229018 3.067133 0.000000 0.000000 0.000000 -1.169577 -1.723796 0.114183 0.967986 -2.281833 -3.751545 -0.383456 3.301153 -3.547927 40.221109 -30.537895 -50.828745 -162.657417 -89.009092 -161.639254 0.000000 0.000000 0.000000 -0.907754 -1.342435 -0.282001 0.883799 -4.977101 13.654373 1.921147 4.050508 -0.027769 13.359579 23.627066 62.087185 -177.795152 86.116220 176.317317 0.000000 0.000000 0.000000 
0.478843 138.935455 4.223415 0.000000 0.000000 0.000000 -86.292760 -6.420193 -2.676846 -0.746233 19.982748 13.424298 -4.393470 5.090686 5.083923 21.854783 26.962906 -23.329090 -5.321617 0.056112 0.396786 0.000000 0.000000 0.000000 -87.669733 -2.944575 -0.670387 -2.586613 -19.462137 -10.978755 -1.189146 -3.153242 -5.565703 35.807099 -30.402695 30.093072 -13.735940 0.460259 -1.279982 0.000000 0.000000 0.000000 -86.202103 -7.188894 -4.483337 1.647028 -1.677006 1.212540 -3.095914 -1.313444 -0.257693 0.465912 1.206671 -0.370305 0.000000 0.000000 0.000000 -2.322774 -1.858725 -0.219670 -11.239554 -2.455268 -0.942476 15.571496 -1.459859 2.849765 0.000000 0.000000 0.000000 -1.395727 -1.676478 0.009815 0.990628 -3.104337 -3.865805 -0.709904 4.260794 -3.738540 41.159529 -30.575588 -49.040628 -176.491146 -89.151194 -175.575586 0.000000 0.000000 0.000000 -1.045006 -1.298990 -0.325451 1.025714 -5.395078 14.018556 1.705963 4.478520 -0.679526 8.003050 21.742000 66.321335 178.985094 88.836179 179.491252 0.000000 0.000000 0.000000 
0.821723 138.794281 4.126591 0.000000 0.000000 0.000000 -85.981085 -7.038950 -2.530470 -0.902194 18.979784 13.005075 -3.988723 4.756534 5.243263 22.006192 26.808860 -23.184671 -5.493565 0.074493 0.387638 0.000000 0.000000 0.000000 -87.508356 -3.471337 -0.435201 -3.816264 -19.323626 -11.546877 -0.874453 -3.296458 -5.658416 35.135886 -30.846172 29.639514 -13.274609 0.477788 -1.301519 0.000000 0.000000 0.000000 -85.884615 -7.344833 -4.085911 1.824985 -1.748809 0.987777 -2.904166 -1.192884 -0.279468 0.753195 0.827760 -0.392803 0.000000 0.000000 0.000000 -2.015738 -1.783417 -0.245507 -10.930654 -2.404831 -1.318478 16.321774 -1.702105 2.464485 0.000000 0.000000 0.000000 -1.429529 -1.618612 -0.026669 0.951427 -3.542105 -4.606872 -1.062637 4.822223 -3.657460 41.500165 -30.217044 -47.580351 172.771179 -89.495641 173.587960 0.000000 0.000000 0.000000 -1.051573 -1.217402 -0.314961 1.160782 -5.493905 14.654690 1.507531 4.978050 -1.055430 3.899312 20.051193 68.487932 12.696115 89.320446 -14.160531 0.000000 0.000000 0.000000 
1.152471 138.664642 3.948864 0.000000 0.000000 0.000000 -85.684033 -7.490019 -2.148647 -1.252567 18.208190 12.549878 -3.688729 4.496703 5.406671 22.416913 26.667408 -23.137650 -5.684009 0.086864 0.436830 0.000000 0.000000 0.000000 -87.243509 -3.906435 -0.059117 -4.859049 -19.049538 -12.256304 -0.459399 -3.291013 -5.727718 34.522956 -31.084348 29.461983 -13.032126 0.462273 -1.308904 0.000000 0.000000 0.000000 -85.622787 -7.420740 -3.598274 2.103602 -1.828044 0.701047 -2.457798 -1.047369 -0.235616 1.085128 0.641549 -0.476688 0.000000 0.000000 0.000000 -1.521363 -1.651422 -0.222611 -10.434886 -2.318481 -1.886568 17.652380 -1.883154 1.931811 0.000000 0.000000 0.000000 -1.145990 -1.556595 -0.016621 0.837292 -3.483756 -5.887658 -1.333941 4.805807 -3.161405 41.228361 -29.724536 -46.412512 76.588120 -89.928675 77.300618 0.000000 0.000000 0.000000 -0.829248 -1.115592 -0.285553 1.245947 -5.319458 15.553348 1.430920 5.463317 -1.030536 1.674155 19.208428 67.859958 15.307919 89.199115 -16.591656 0.000000 0.000000 0.000000 
